<?xml version="1.0" encoding="utf-8"?>
<!-- Generator: Adobe Illustrator 21.1.0, SVG Export Plug-In . SVG Version: 6.00 Build 0)  -->
<svg version="1.1" id="Calque_1" xmlns="http://www.w3.org/2000/svg" xmlns:xlink="http://www.w3.org/1999/xlink" x="0px" y="0px"
	 viewBox="0 0 19 22" style="enable-background:new 0 0 19 22;" xml:space="preserve">
<style type="text/css">
	.st0{enable-background:new    ;}
	.st1{clip-path:url(#SVGID_2_);}
	.st2{clip-path:url(#SVGID_4_);}
	.st3{clip-path:url(#SVGID_6_);}
</style>
<g class="st0">
	<g>
		<defs>
			<rect id="SVGID_1_" width="19" height="18"/>
		</defs>
		<clipPath id="SVGID_2_">
			<use xlink:href="#SVGID_1_"  style="overflow:visible;"/>
		</clipPath>
		<g class="st1">
			<defs>
				<path id="SVGID_3_" d="M14.7,13.4c-2.5-0.9-3.3-1.7-3.3-3.3c0-1,0.8-0.7,1.1-2.4c0.1-0.7,0.8,0,0.9-1.7c0-0.7-0.4-0.8-0.4-0.8
					s0.2-1,0.3-1.8c0.1-1-0.6-3.4-4-3.4C6,0,5.3,2.5,5.4,3.4c0.1,0.8,0.3,1.8,0.3,1.8S5.3,5.4,5.3,6c0.1,1.7,0.8,1,0.9,1.7
					c0.3,1.8,1.1,1.5,1.1,2.4c0,1.6-0.8,2.4-3.3,3.3C1.6,14.3,0,15.3,0,15.9V18h9.4h9.4v-2.1C18.8,15.3,17.2,14.3,14.7,13.4"/>
			</defs>
			<clipPath id="SVGID_4_">
				<use xlink:href="#SVGID_3_"  style="overflow:visible;"/>
			</clipPath>
			<g class="st2">
				<defs>
					<rect id="SVGID_5_" width="19" height="18"/>
				</defs>
				<clipPath id="SVGID_6_">
					<use xlink:href="#SVGID_5_"  style="overflow:visible;"/>
				</clipPath>
				<rect x="-5" y="-5" class="st3" width="28.8" height="28"/>
			</g>
		</g>
	</g>
</g>
<rect y="20" width="19" height="2"/>
</svg>
